<?xml version="1.0" encoding="UTF-8"?>
<svg xmlns="http://www.w3.org/2000/svg" viewBox="0 0 800 300">
    <g fill="#00acd7" >
        <path d="m187.117 118.299h-108.365l-8.669 12.302 115.027-.064z"/>
        <path d="m183.29 143.797h-140.236l-8.918 12.254 147.148-.105z"/>
        <path d="m179.463 169.287h-59.914l-8.056 12.302 65.965-.048z"/>
    </g>
    <g id="svgGroup" fill="#ffffff" fill-rule="evenodd" transform="matrix(1.136433, 0, 0, 1.136433, 193.232712, 106.464211)"><path d="M 305.127 17.09 L 324.609 17.09 L 322.607 27.197 L 314.795 29.736 A 14.402 14.402 0 0 1 315.052 31.024 A 17.685 17.685 0 0 1 315.161 31.861 Q 315.283 33.008 315.283 34.326 A 22.894 22.894 0 0 1 314.732 39.435 A 19.362 19.362 0 0 1 313.721 42.603 Q 312.158 46.338 309.277 49.072 A 19.746 19.746 0 0 1 303.867 52.755 A 23.849 23.849 0 0 1 301.978 53.54 A 25.852 25.852 0 0 1 295.741 54.956 A 32.165 32.165 0 0 1 292.383 55.127 A 40.813 40.813 0 0 1 290.613 55.09 A 30.289 30.289 0 0 1 289.014 54.981 Q 287.55 54.839 286.406 54.515 A 10.646 10.646 0 0 1 286.328 54.492 A 15.081 15.081 0 0 0 285.53 54.962 Q 285.052 55.264 284.668 55.567 A 1.728 1.728 0 0 0 283.993 56.832 A 2.354 2.354 0 0 0 283.984 57.031 A 1.608 1.608 0 0 0 284.261 57.925 A 2.359 2.359 0 0 0 284.57 58.301 A 2.82 2.82 0 0 0 284.975 58.601 Q 285.423 58.881 286.118 59.143 A 11.511 11.511 0 0 0 286.353 59.229 A 11.601 11.601 0 0 0 287.457 59.553 Q 288.004 59.687 288.628 59.794 A 22.413 22.413 0 0 0 289.404 59.912 L 296.094 60.791 A 43.215 43.215 0 0 1 299.887 61.444 Q 301.65 61.834 303.134 62.351 A 19.801 19.801 0 0 1 305.273 63.233 A 14.073 14.073 0 0 1 307.88 64.849 A 10.173 10.173 0 0 1 310.4 67.725 A 11.559 11.559 0 0 1 311.703 71.242 Q 311.992 72.665 312.011 74.294 A 19.651 19.651 0 0 1 312.012 74.512 Q 312.012 79.883 309.79 84.058 A 18.627 18.627 0 0 1 304.099 90.482 A 22.116 22.116 0 0 1 303.32 91.016 A 25.722 25.722 0 0 1 298.57 93.497 A 35.266 35.266 0 0 1 293.555 95.069 Q 287.793 96.436 280.42 96.436 Q 273.076 96.436 267.858 94.58 A 21.641 21.641 0 0 1 263.94 92.749 A 14.305 14.305 0 0 1 260.515 89.95 A 10.892 10.892 0 0 1 257.813 82.52 A 11.52 11.52 0 0 1 261.133 74.268 A 16.474 16.474 0 0 1 264.145 71.832 Q 265.709 70.827 267.683 69.951 A 39.894 39.894 0 0 1 271.484 68.506 Q 269.678 67.383 268.53 65.576 A 7.07 7.07 0 0 1 267.383 61.719 A 8.758 8.758 0 0 1 269.758 55.693 A 11.262 11.262 0 0 1 269.873 55.567 A 16.062 16.062 0 0 1 272.191 53.536 Q 274.29 52.004 277.295 50.635 A 17.297 17.297 0 0 1 273.604 46.63 A 15.867 15.867 0 0 1 272.51 44.678 Q 270.898 41.26 270.898 36.914 A 23.116 23.116 0 0 1 271.372 32.151 A 19.21 19.21 0 0 1 272.314 29.004 Q 273.73 25.44 276.416 22.754 Q 279.639 19.58 284.473 17.847 A 28.797 28.797 0 0 1 290.343 16.445 A 38.514 38.514 0 0 1 295.508 16.113 A 47.327 47.327 0 0 1 299.059 16.252 A 55.657 55.657 0 0 1 300.757 16.406 Q 303.39 16.686 304.977 17.055 A 15.741 15.741 0 0 1 305.127 17.09 Z M 0 68.701 L 0 51.611 A 41.18 41.18 0 0 0 4.254 53.87 Q 6.546 54.928 9.183 55.852 A 66.62 66.62 0 0 0 9.204 55.86 A 35.996 35.996 0 0 0 13.84 57.16 Q 16.369 57.68 18.686 57.713 A 21.955 21.955 0 0 0 18.994 57.715 A 14.236 14.236 0 0 0 20.491 57.64 Q 21.399 57.544 22.168 57.324 A 7.654 7.654 0 0 0 23.389 56.866 A 5.759 5.759 0 0 0 24.463 56.201 A 4.549 4.549 0 0 0 25.854 54.37 Q 26.318 53.272 26.318 51.904 A 5.833 5.833 0 0 0 25.244 48.535 A 13.328 13.328 0 0 0 23.986 46.985 Q 23.349 46.304 22.566 45.628 A 22.132 22.132 0 0 0 22.339 45.435 A 439.133 439.133 0 0 0 20.416 43.829 A 569.461 569.461 0 0 0 18.311 42.09 A 45.844 45.844 0 0 1 14.193 38.282 A 39.536 39.536 0 0 1 12.573 36.475 Q 10.107 33.545 8.765 30.054 A 19.995 19.995 0 0 1 7.595 25.23 A 25.392 25.392 0 0 1 7.422 22.217 A 22.559 22.559 0 0 1 8.237 16.074 A 20.143 20.143 0 0 1 9.229 13.33 A 20.734 20.734 0 0 1 14.38 6.275 A 22.757 22.757 0 0 1 20.616 2.327 A 27.037 27.037 0 0 1 22.388 1.636 A 28.908 28.908 0 0 1 28.939 0.193 A 35.917 35.917 0 0 1 32.715 0 A 45.247 45.247 0 0 1 43.872 1.367 A 41.788 41.788 0 0 1 51.136 3.913 A 36.849 36.849 0 0 1 53.711 5.225 L 47.119 19.727 Q 43.701 18.018 39.966 16.724 A 24.747 24.747 0 0 0 36.334 15.753 A 18.971 18.971 0 0 0 32.91 15.43 A 13.425 13.425 0 0 0 31.593 15.49 Q 30.953 15.554 30.414 15.683 A 5.835 5.835 0 0 0 29.59 15.943 Q 28.487 16.388 27.827 17.054 A 3.622 3.622 0 0 0 27.637 17.261 A 4.914 4.914 0 0 0 26.918 18.371 A 4.353 4.353 0 0 0 26.685 18.994 A 6.765 6.765 0 0 0 26.44 20.275 A 5.917 5.917 0 0 0 26.416 20.801 Q 26.416 22.315 27.075 23.706 A 7.409 7.409 0 0 0 27.685 24.744 Q 28.349 25.703 29.443 26.782 A 28.878 28.878 0 0 0 30.65 27.9 Q 32.129 29.199 34.277 30.811 A 44.202 44.202 0 0 1 37.669 33.579 Q 39.302 35.061 40.578 36.567 A 26.752 26.752 0 0 1 40.747 36.768 A 21.915 21.915 0 0 1 43.418 40.777 A 18.868 18.868 0 0 1 44.434 43.14 A 20.907 20.907 0 0 1 45.502 48.169 A 25.488 25.488 0 0 1 45.605 50.488 A 26.995 26.995 0 0 1 45.096 55.84 A 21.753 21.753 0 0 1 43.799 60.059 Q 41.992 64.307 38.525 67.285 A 21.841 21.841 0 0 1 33.292 70.585 A 27.726 27.726 0 0 1 30.005 71.826 A 33.743 33.743 0 0 1 24.306 73.034 Q 21.548 73.386 18.457 73.389 A 54.878 54.878 0 0 1 18.408 73.389 A 41.848 41.848 0 0 1 10.098 72.583 A 38.072 38.072 0 0 1 8.276 72.168 A 31.855 31.855 0 0 1 3.802 70.691 A 24.096 24.096 0 0 1 0 68.701 Z M 59.18 50.928 L 63.281 31.299 L 55.762 31.299 L 57.764 22.022 L 68.408 17.725 L 75.098 6.006 L 87.695 6.006 L 85.303 17.09 L 99.365 17.09 L 96.289 31.299 L 82.178 31.299 L 78.076 50 Q 77.783 51.416 77.539 52.857 A 25.958 25.958 0 0 0 77.432 53.539 Q 77.327 54.278 77.302 54.816 A 6.812 6.812 0 0 0 77.295 55.127 A 5.064 5.064 0 0 0 77.362 55.983 Q 77.439 56.433 77.606 56.784 A 2.05 2.05 0 0 0 78.149 57.495 A 2.986 2.986 0 0 0 79.418 58.104 A 4.321 4.321 0 0 0 80.371 58.203 A 12.459 12.459 0 0 0 82.088 58.077 Q 82.961 57.955 83.921 57.716 A 22.305 22.305 0 0 0 84.57 57.544 A 43.973 43.973 0 0 0 89.008 56.029 A 48.217 48.217 0 0 0 89.307 55.908 L 89.307 70.117 A 26.982 26.982 0 0 1 85.756 71.546 A 36.298 36.298 0 0 1 82.153 72.51 Q 78.076 73.389 72.705 73.389 A 26.984 26.984 0 0 1 68.625 73.101 Q 64.34 72.444 61.743 70.288 A 9.398 9.398 0 0 1 58.942 66.193 Q 58.008 63.648 58.008 60.108 A 26.406 26.406 0 0 1 58.078 58.244 Q 58.145 57.291 58.278 56.234 A 46.269 46.269 0 0 1 58.374 55.518 A 76.29 76.29 0 0 1 58.708 53.365 Q 58.876 52.382 59.058 51.503 A 45.1 45.1 0 0 1 59.18 50.928 Z M 346.582 51.807 L 343.701 51.807 L 343.701 52.173 L 343.701 52.588 A 10.909 10.909 0 0 0 343.878 54.619 Q 344.296 56.821 345.703 58.057 A 6.29 6.29 0 0 0 347.838 59.258 Q 349.457 59.815 351.709 59.815 A 24.844 24.844 0 0 0 359.137 58.717 A 23.456 23.456 0 0 0 359.668 58.545 A 48.773 48.773 0 0 0 363.562 57.031 A 65.903 65.903 0 0 0 367.725 55.029 L 367.725 68.408 A 52.714 52.714 0 0 1 358.545 72.022 A 30.477 30.477 0 0 1 354.642 72.855 Q 352.649 73.155 350.348 73.287 A 66.146 66.146 0 0 1 346.582 73.389 Q 339.6 73.389 334.717 70.752 Q 329.834 68.115 327.271 63.208 Q 324.707 58.301 324.707 51.514 Q 324.707 44.727 326.636 38.379 Q 328.564 32.031 332.495 27.002 A 28.079 28.079 0 0 1 342.383 19.043 A 27.801 27.801 0 0 1 349.972 16.635 A 37.812 37.812 0 0 1 356.396 16.113 A 33.564 33.564 0 0 1 362.083 16.566 Q 365.255 17.112 367.795 18.317 A 16.699 16.699 0 0 1 371.021 20.313 A 13.365 13.365 0 0 1 376.255 30 A 17.281 17.281 0 0 1 376.318 31.494 Q 376.318 36.084 374.561 39.819 A 16.472 16.472 0 0 1 370.282 45.353 A 19.924 19.924 0 0 1 369.165 46.24 Q 365.784 48.736 360.695 50.157 A 38.451 38.451 0 0 1 359.912 50.366 A 42.435 42.435 0 0 1 354.597 51.351 Q 350.922 51.807 346.582 51.807 Z M 244.287 23.926 L 244.678 23.926 L 247.266 17.09 L 262.402 17.09 L 250.684 72.412 L 235.596 72.412 L 236.084 66.406 L 235.693 66.406 A 20.536 20.536 0 0 1 232.478 69.971 A 19.279 19.279 0 0 1 232.422 70.02 A 13.815 13.815 0 0 1 228.468 72.399 A 15.621 15.621 0 0 1 228.247 72.486 A 12.99 12.99 0 0 1 225.741 73.149 Q 224.566 73.344 223.232 73.38 A 22.766 22.766 0 0 1 222.607 73.389 A 15.818 15.818 0 0 1 214.771 71.387 Q 211.187 69.388 209.04 64.785 A 21.025 21.025 0 0 1 209.033 64.771 A 19.799 19.799 0 0 1 207.724 60.853 Q 207.265 58.86 207.057 56.487 A 48.116 48.116 0 0 1 206.885 52.295 A 40.293 40.293 0 0 1 207.153 47.769 A 54.069 54.069 0 0 1 207.837 43.408 Q 208.789 38.574 210.718 33.765 A 40.168 40.168 0 0 1 215.576 24.951 A 24.337 24.337 0 0 1 221.03 19.493 A 22.761 22.761 0 0 1 222.485 18.53 A 16.742 16.742 0 0 1 230.407 16.142 A 20.246 20.246 0 0 1 231.494 16.113 A 17.426 17.426 0 0 1 234.205 16.314 Q 235.717 16.552 236.996 17.073 A 10.88 10.88 0 0 1 237.036 17.09 A 12.995 12.995 0 0 1 241.187 19.8 Q 242.969 21.533 244.287 23.926 Z M 179.102 72.412 L 160.205 72.412 L 171.875 17.09 L 186.963 17.09 L 186.084 26.319 L 186.475 26.319 Q 188.77 22.412 191.162 20.191 A 14.358 14.358 0 0 1 195.018 17.596 A 13.317 13.317 0 0 1 196.46 17.041 A 19.018 19.018 0 0 1 199.879 16.304 A 25.665 25.665 0 0 1 203.076 16.113 A 21.253 21.253 0 0 1 204.611 16.171 A 25.168 25.168 0 0 1 205.347 16.236 A 22.561 22.561 0 0 1 205.882 16.296 Q 206.614 16.389 206.951 16.494 A 1.768 1.768 0 0 1 206.982 16.504 L 202.881 35.205 Q 202.046 34.864 200.916 34.596 A 21.292 21.292 0 0 0 200.244 34.448 A 15.864 15.864 0 0 0 198.088 34.169 A 19.198 19.198 0 0 0 196.875 34.131 A 12.098 12.098 0 0 0 193.482 34.598 A 11.185 11.185 0 0 0 192.749 34.839 A 9.432 9.432 0 0 0 189.763 36.637 A 11.21 11.21 0 0 0 189.233 37.134 A 11.627 11.627 0 0 0 187.865 38.803 Q 187.082 39.949 186.401 41.431 Q 185.381 43.651 184.607 46.707 A 48.446 48.446 0 0 0 184.277 48.096 L 179.102 72.412 Z M 118.599 72.978 A 30.984 30.984 0 0 0 123.779 73.389 A 36.007 36.007 0 0 0 127.957 73.153 A 28.45 28.45 0 0 0 134.888 71.485 Q 139.844 69.58 143.604 66.162 A 31.346 31.346 0 0 0 149.902 58.203 A 38.371 38.371 0 0 0 153.711 48.364 A 46.879 46.879 0 0 0 154.98 37.402 A 36.041 36.041 0 0 0 154.972 36.614 Q 154.912 33.879 154.433 31.485 A 20.937 20.937 0 0 0 152.49 25.855 Q 150 21.094 145.239 18.604 Q 142.413 17.125 138.872 16.524 A 30.984 30.984 0 0 0 133.691 16.113 A 36.007 36.007 0 0 0 129.513 16.349 A 28.45 28.45 0 0 0 122.583 18.018 Q 117.627 19.922 113.867 23.34 A 31.346 31.346 0 0 0 107.568 31.299 A 38.371 38.371 0 0 0 103.76 41.138 A 46.879 46.879 0 0 0 102.49 52.1 A 36.041 36.041 0 0 0 102.499 52.888 Q 102.559 55.623 103.037 58.017 A 20.937 20.937 0 0 0 104.98 63.648 Q 107.471 68.408 112.231 70.899 Q 115.058 72.377 118.599 72.978 Z M 125.879 59.229 A 4.434 4.434 0 0 0 128.153 58.587 A 6.146 6.146 0 0 0 129.028 57.959 Q 130.369 56.816 131.492 54.902 A 17.766 17.766 0 0 0 131.738 54.468 A 24.286 24.286 0 0 0 133.003 51.768 A 31.144 31.144 0 0 0 133.838 49.39 A 40.916 40.916 0 0 0 134.973 44.703 A 46.733 46.733 0 0 0 135.205 43.311 A 43.289 43.289 0 0 0 135.693 36.817 Q 135.693 34.668 135.181 33.228 A 6.155 6.155 0 0 0 134.738 32.247 Q 134.32 31.513 133.74 31.055 A 3.393 3.393 0 0 0 131.946 30.345 A 4.404 4.404 0 0 0 131.494 30.322 A 4.434 4.434 0 0 0 129.22 30.964 A 6.146 6.146 0 0 0 128.345 31.592 A 10.038 10.038 0 0 0 126.934 33.087 Q 126.347 33.844 125.815 34.778 A 17.4 17.4 0 0 0 125.659 35.059 A 24.403 24.403 0 0 0 124.418 37.729 A 31.91 31.91 0 0 0 123.584 40.112 A 38.574 38.574 0 0 0 122.499 44.617 A 44.477 44.477 0 0 0 122.241 46.216 Q 121.777 49.463 121.777 52.735 A 15.641 15.641 0 0 0 121.862 54.422 Q 122.079 56.417 122.852 57.593 Q 123.926 59.229 125.879 59.229 Z M 234.307 56.247 A 9.085 9.085 0 0 0 234.326 56.226 Q 236.02 54.372 237.263 51.509 A 24.475 24.475 0 0 0 237.427 51.123 A 29.958 29.958 0 0 0 239.191 45.098 A 33.485 33.485 0 0 0 239.307 44.434 A 32.033 32.033 0 0 0 239.746 41.382 A 32.174 32.174 0 0 0 239.893 38.33 A 16.404 16.404 0 0 0 239.774 36.296 Q 239.647 35.282 239.384 34.438 A 7.424 7.424 0 0 0 238.892 33.228 Q 237.891 31.299 235.889 31.299 A 4.404 4.404 0 0 0 233.752 31.866 A 6.044 6.044 0 0 0 232.886 32.446 Q 231.535 33.522 230.378 35.327 A 16.932 16.932 0 0 0 230.225 35.571 A 21.345 21.345 0 0 0 228.887 38.126 A 27.067 27.067 0 0 0 228.101 40.112 A 34.74 34.74 0 0 0 226.75 45.155 A 38.095 38.095 0 0 0 226.685 45.508 A 32.006 32.006 0 0 0 226.172 51.221 A 17.416 17.416 0 0 0 226.269 53.129 Q 226.491 55.132 227.216 56.386 A 5.134 5.134 0 0 0 227.222 56.397 A 3.782 3.782 0 0 0 228.179 57.515 Q 228.949 58.107 230.015 58.19 A 4.581 4.581 0 0 0 230.371 58.203 Q 232.508 58.203 234.307 56.247 Z M 287.5 74.61 L 281.885 74.024 A 20.586 20.586 0 0 0 279.877 74.39 Q 278.594 74.695 277.563 75.147 A 8.977 8.977 0 0 0 276.301 75.817 Q 275.419 76.386 274.854 77.1 Q 273.926 78.272 273.926 79.834 A 3.297 3.297 0 0 0 274.367 81.547 Q 274.882 82.418 276.001 82.984 Q 277.876 83.932 281.443 84.024 A 30.499 30.499 0 0 0 282.227 84.033 A 39.362 39.362 0 0 0 287.646 83.667 Q 290.283 83.301 292.09 82.373 A 6.488 6.488 0 0 0 293.167 81.677 A 5.028 5.028 0 0 0 294.019 80.811 Q 294.727 79.883 294.727 78.613 A 3.596 3.596 0 0 0 294.68 78.02 A 2.624 2.624 0 0 0 294.507 77.417 Q 294.287 76.904 293.896 76.514 A 4.263 4.263 0 0 0 292.794 75.731 Q 292.294 75.478 291.681 75.303 A 8.218 8.218 0 0 0 291.26 75.195 A 26.487 26.487 0 0 0 289.229 74.818 A 33.739 33.739 0 0 0 287.5 74.61 Z M 291.992 43.213 A 3.584 3.584 0 0 0 294.366 42.311 A 5.304 5.304 0 0 0 294.995 41.675 A 9.04 9.04 0 0 0 296.09 40.013 Q 296.505 39.213 296.835 38.255 A 16.504 16.504 0 0 0 297.046 37.598 A 18.341 18.341 0 0 0 297.755 33.569 A 21.606 21.606 0 0 0 297.803 32.129 A 12.64 12.64 0 0 0 297.765 31.13 Q 297.728 30.661 297.654 30.245 A 7.654 7.654 0 0 0 297.632 30.127 Q 297.474 29.315 297.128 28.753 A 2.93 2.93 0 0 0 297.07 28.662 A 2.33 2.33 0 0 0 296.546 28.035 A 2.15 2.15 0 0 0 296.167 27.783 A 2.501 2.501 0 0 0 295.466 27.546 A 3.488 3.488 0 0 0 294.824 27.49 A 3.834 3.834 0 0 0 292.114 28.565 A 7.578 7.578 0 0 0 290.889 30.064 A 9.962 9.962 0 0 0 290.21 31.348 Q 289.453 33.057 289.087 34.986 A 21.279 21.279 0 0 0 288.781 37.198 A 17.284 17.284 0 0 0 288.721 38.623 Q 288.721 39.697 288.892 40.503 A 5.457 5.457 0 0 0 289.097 41.232 A 4.06 4.06 0 0 0 289.404 41.895 A 2.702 2.702 0 0 0 291.366 43.167 A 4.063 4.063 0 0 0 291.992 43.213 Z M 345.605 39.99 L 347.021 39.99 A 26.095 26.095 0 0 0 349.62 39.869 Q 352.087 39.622 353.76 38.867 A 10.991 10.991 0 0 0 355.304 38.026 Q 356.619 37.157 357.324 36.035 A 7.494 7.494 0 0 0 358.077 34.487 A 5.719 5.719 0 0 0 358.398 32.617 Q 358.398 31.055 357.422 29.981 Q 356.445 28.906 354.297 28.906 A 5.561 5.561 0 0 0 351.087 29.939 A 7.624 7.624 0 0 0 350.244 30.615 A 13.089 13.089 0 0 0 347.905 33.513 A 15.966 15.966 0 0 0 347.168 34.888 A 18.144 18.144 0 0 0 345.944 38.242 A 15.652 15.652 0 0 0 345.605 39.99 Z"/></g>
</svg>
